<svg xmlns="http://www.w3.org/2000/svg" viewBox="-36.75 -90.625 507 507">
  <rect x="-36.75" y="-90.625" width="507" height="507" rx="76" fill="#1C4A3B"/>
  <g fill="#b5933b">
<g>
    <g id="Generative_Object__x28_0_x2C__0_x29_">
      <path d="M268.35,81.88c.27.29.49,2.3.12,2.37-.5.09-1.58.12-2.09-.04l-3.71-1.12-5.76-5.89c-.68-.7-1.2-2.8-1.93-3.48l-3.47-3.2c-.68-.63-.79-3.45-.06-4.05l2.63-2.17,1.72,3.66c.94,2,1.8,3.62,4.01,5.18.15,2.49,2,5.06,5.06,5.02l3.47,3.72Z"/>
      <path d="M274.07,75.41l-.09,2.29c-.02.54-1.91.48-2.59.44l-3.58-3.37c-2.37-.8-4.16-2.47-4.24-4.87l-3.12-3.29-1.95-2.91-.3-6.33,3.66-.06.24,4.72c1.16.68,1.72,2.32,1.93,3.44l4.46,4.41,5.57,5.55Z"/>
      <path d="M351.98,133.29l-1.18,1.4c-.28.34-1.55-.42-1.77-.82l-1.93-3.61c-2.32-4.33-.37-5.63-2.82-6.59l-.56-4.09-1.85-2.94-3.68-4.03,5.68-.37c-.41,3.15,1.58,3.61,4.42,7.83,2.3,3.41-.14,4.96,2.84,6.42l.24,4.48,1.59.7c.37.16-.7,1.28-.98,1.61Z"/>
      <path d="M120.16,83.8c-1.51.94-2.05,1.81-1.77,4.15l-3.65.04-.02-20.73,3.74.27c-.45,2.37.11,3.23,1.71,3.92v12.35Z"/>
      <path d="M128.22,81.78l-.95,7.52-3.41,2.58-.08-24.29,1.47-.23c.23-.04.14,1.22.37,1.28l2.9.77c.01,3.76.22,8.27-.3,12.37Z"/>
      <path d="M120.17,135.87l-3.32.1c-1.08.03,1.06-4.57-2.02-5.13l-.18-7.93c-1.71-.69-2.1-2.34-1.59-4.29-1.55-1.17-2.32-2.59-2-4.55,3.08-.72,5.03,1.37,5.75,4.09,1.26.92,1.71,2.36,1.58,4.18-.49,1.97.15,3.33,1.69,4.18l.07,9.34Z"/>
      <path d="M328.98,93.76l-1.15,1.24c-.27.3-1.47-.38-1.67-.74l-1.99-3.64c-2.64-4.82.1-6.42-3-7.88l-.21-9.44,3.55-2.84.28,8.75c3.73,1.67-.34,5.89,3.4,7.68l.26,4.48,1.63.7c.39.17-.74,1.31-1.1,1.7Z"/>
      <path d="M102.63,135.82h-3.43s-.32-4.02-.32-4.02c-3.4-1.67.11-4.85-3.32-6.51l-.31-4.01c-1.79-1.54-3.06-4.9-2.96-7.08,3.1-1.19,4.54,2.03,5.52,4.01l1.68,3.37c2.81,2.71-.21,5.56,3.03,6.48l.1,7.76Z"/>
      <path d="M135.71,91.2c-2.76.7-1.39,5.02-2.62,3.96l-1.19-1.03c-.57-.49-1.45-1.59-1.68-2.25s.84-1.98,1.86-2.49l.19-8.96,1.77-1.25-.07-8.35,3.61.2.07,12.85-1.79,1.23-.18,6.09Z"/>
      <path d="M108.46,135.77c-.84-.02.81-4.21-1.97-4.99l-.43-7.68c-.91-1.15-1.4-2.14-2.09-3.5l-1.71-3.31c-.1-.2-.8-.56-.99-.68-.28-.18-.25-.89-.03-1.13l2.25-2.34,4.59,4.68c-.29,2.12.65,3.48,1.44,4.44l1.24,7.66c.37,2.26.33,4.55.37,6.92l-2.66-.07Z"/>
      <path d="M131.01,222.77l1.12,1.6c.12.17-2.82,3.42-3.22,2.42l-1.89-4.71-2.99-2.33-11.58-11.22,5.16-.6,3.22,3.59c2.97-.16,4.62,2.28,5.13,4.69l2.89,3.53,2.17,3.04Z"/>
      <path d="M314.05,97.73c.47.83.37,3.01.12,4.07-3.43-1.19-5.07-3.68-5.6-6.19-2.86-1.68.21-4.77-3.09-6.37l-.23-4.05c-.89-.77-1.86-1.88-1.87-2.73,0-1.22.8-2.62,1.64-3.43l.8-.92c.22-.26,1.35.29,1.32.54-.29,1.19.46,3.08,1.73,3.44l.32,5.32c2.61,1.51.55,2.55,2.94,6.84l1.93,3.48Z"/>
      <path d="M137.64,129.79l-.09,9.36c-7.56,1.85-4.75-7.4-5.44-16.38-1.16-.61-2.05-1.71-1.84-2.39l.95-3.08,4.69,3.89-.15,6.74c-.01.46.63,1.15,1.89,1.85Z"/>
      <path d="M340.41,88l-.02-7.65-1.91-1.2.26-9.42c1.28-1.97,3.37-2.96,5.22-2.18l.09,20.49-3.64-.04Z"/>
      <path d="M365.12,132.98v-8.25s-1.73-1.22-1.73-1.22l-.25-5.08c-1.41-1.55-3.49-5.45-3.52-7.62.77-.53,3.23-.37,3.85.38.94,1.13,1.53,2.46,2.13,3.93,2.66,2.48-.09,5,3.03,5.86l.17,12.02-3.69-.02Z"/>
      <path d="M102.86,171.33c2.65,1.46,1.61,5.92,1.27,5.92h-2.91c-.66,0-.5-2.27-.66-2.65-.77-1.14-1.37-2.31-2-3.57l-1.72-2.99-1.91-3.48-1.68-3.16c-.64-1.2-1.09-3.8-.52-4.73,2.78-.4,4.89,2.32,4.56,4.6l3.32,3.12c.23,1.73.65,2.63,1.85,3.58l.41,3.37Z"/>
      <path d="M137.72,218.14l1.58,1.07c.3.2.35,1.85.06,2.07-.78.59-2.81.44-3.86-.16s-.94-2.37-1.91-3.45l-4.54-5.05-2.17-4.47c-2.71-.15-5.08-1.33-5.08-4.72l5.22.14,4.76,5.32c.6.77,1.23,2.78,1.95,3.44l3.79,3.47.2,2.34Z"/>
      <path d="M284.56,61.58l1.55,4.39c-.89.27-3.61.45-4.47-.22-1.27-.98-2.19-2.43-2.37-4.19l-3.58-3.51c.58-2.27.12-3.88-1.62-4.91l-.1-7.85c3.33.61,3.69,3.52,3.98,5.95l1.98,3.45,1.59,3.72,3.06,3.16Z"/>
      <path d="M300.33,105.91c.36.37.4,2.03.29,2.57-.13.67-2.6.58-3.08.07l-3.86-4.07-1.74-3.58-1.77-2.99c-.72-1.41-1.11-2.24-2.12-3.52l-.24-6.26,3.66-.12c-.21,2.13.17,3.35,1.68,4.21l.36,3.96c.99,1.2,1.4,2.13,2.1,3.47l1.62,3.11,3.1,3.15Z"/>
      <path d="M150.3,97.78c-.57,1.2-1.4,2.98-2.54,3.74-.59.4-2.4-.45-2.52-1.07s.09-1.73.45-2.51l1.69-3.63c.63-1.36,1.15-2.27,2.11-3.48l.44-5.9c2.87-.88.94-5.22,1.9-5.19l3.23.11.02,7.58c-1.05.67-1.89,1.74-1.78,2.88.18,1.95-.7,2.65-1.28,3.87l-1.71,3.6Z"/>
      <path d="M335.71,85.41c.86,1.12,3.21,3.37.95,4.51-1.05.53-3.07-.6-3.72-1.44-2.39-3.1.64-6.43-2.71-7.33l-.12-11.85,5.85.03c-1.58,1.99-2.27,2.65-2.36,3.61-.16,1.6.72,2.56,1.88,3.36l.25,9.11Z"/>
      <path d="M320.78,99.03l-2.39-2.78-1.64-3.67c-.66-1.46-1.01-2.31-2.16-3.49l-.22-5.12-1.77-1.23.13-8.2,3.19-.03c1.11,0-1.13,4.51,2.02,5.87l.24,7.02c1.69,1.05,1.55,2.37,1.95,4.22.56,2.63,1.13,4.53.65,7.41Z"/>
      <path d="M154.91,104.82c-.64.74-3.38.53-3.47-.33-.47-4.3,4.46-2.41,3.69-7.1-.14-.87,1.07-2.3,1.39-3.03.53-1.21,1.13-2.49,2.08-3.47l.29-6.26,3.69-.22-.26,8.36c-1.78.99-1.86,2.77-1.87,4.89l-2.33,3.45-3.22,3.72Z"/>
      <path d="M161.74,110.38c-.8.36-3.11.4-3.03-.14l.37-2.56c.76-.91,1.48-2.32,1.89-3.4,1.71-1.81,2.86-4.12,2.9-6.66,3.05-1.95.08-3.91,3.04-6.92.44-.45,1.73-.94,2.46-1.03.62-.08,1.65.9,1.61,1.6-.05,1.03-.56,1.84-1.72,2.57l-.49,5.84-1.9,2.95-3.08,3.36c-.21,1.22-.99,3.89-2.05,4.38Z"/>
      <path d="M128.6,137.54l-2.72.15c-1.02.05,1.07-4.51-2.01-5.12l-.14-9.59-1.75-1.22-.07-5.95,3.22.2c.54,1.44,1.27,2.67,1.91,3.49l1.03,8.62c.37,3.05.48,6.25.51,9.42Z"/>
      <path d="M142.06,97.29l-1.71,1.38c-.32.26-1.06-.98-1.35-1.28l-1.31-1.36c-.28-.29,1.03-.91,1.61-1.13l.31-4.47c3.66-1.81-.34-5.98,3.42-7.68l.08-8.28,2.91.15c.05,3.5.56,7.06-.23,10.49l-1.32,5.73c-.22.94-1.77,2.23-1.4,3.77.15.64-.5,2.28-1,2.68Z"/>
      <path d="M146.09,216l-1.95,3.23c-2.03-2.1-4.01-5.6-4.73-8.41l-6.13-6.1-5.35-4.54,5.33-.43,5.47,4.99c1.1,1,3.31,2.87,3.94,4.13l1.73,3.49,1.7,3.64Z"/>
      <path d="M162.08,60.63l2.78-4.17,2.07-3.64c.6-1.06-.35-3.92,2.16-4.21l.02-4.21c1.73-1.24,1.81-1.98,2.28-4.53l3.36,3.42c-.22,2.61-.71,3.57-1.95,5.04-.04,2.45-2.44,7.09-3.48,7.9-1.84,1.44-2.22,2.23-2.19,4.68l-5.04-.29Z"/>
      <path d="M152.94,215.59c-1.91-1.72-3.87-3.31-4.56-4.7l-1.81-3.65c-.72-1.45-1.24-2.74-2.31-3.75l-6.81-6.42.17-2.24c.04-.55,2.3-.66,2.7-.27l4.54,4.49,2.24,2.85,4.07,5.27c.62.81.33,2.92,2.27,3.22l-.5,5.22Z"/>
      <path d="M160.72,209.85h-3.51c-.23-5.29-5.67-7.53-6.02-11.12l-5.13-5.18c-.3-.3-.2-1.89-.11-2.3.12-.55,2.47-.59,2.87-.19l6.18,6.07c.15,2.6,1.93,3.31,3.14,5.02l2.26,3.18.31,4.53Z"/>
      <path d="M168.8,115.75l-3.56.16.34-4.67,3.27-3.13c-.09-4.03,4.24-3.28,4.13-8.64.72-.77,1.71-2.44,1.73-3.69-.05-.23.93-.77,1.13-.52l.97,1.21,1.43,1.98c.41.57-.76,2.09-1.68,2.44l-.46,3.62-3.22,3.15c.15,3.93-4.41,3.73-4.08,8.09Z"/>
      <path d="M189.7,73.7c-.75,1.36-5.47,6.04-6.49,6.24-.96.19-3.02-.33-3.53-1.17l8.57-8.9c.24-.77.87-2.49,1.29-3.1l2.19-3.16.33-2.43c.09-.63,1.88-.43,2.69-.32.65.09.87,1.14.98,2.42-.11,1.35-.54,2.58-1.23,3.46l-2.76,3.52c-.75.96-1.35,2.19-2.04,3.43Z"/>
      <path d="M122.06,173.53l-3.55.26c-.06-2.15-.54-3.29-1.66-4.3-.33-2-.83-3.38-1.57-4.81l-1.82-3.55c-.72-1.4-1.03-2.27-2.2-3.46l-.32-4.54,3.49.04c.36,2,.81,3.02,1.7,4.25l1.72,3.58c.68,1.42,1.09,2.27,2.13,3.49l.32,3.99c1.55.94,1.9,1.92,1.77,5.06Z"/>
      <path d="M123.77,226.17c-.49,3.52,3.7,2.45.52,4.89-.21.16-.53.75-.74.82l-1.25.4c-.31.1.04-2.06-.19-2.29l-8.37-8.37-4.08-3.88-1.81-2.24c-.7-.87,1.05-3.2,2.18-2.16l5.67,5.25c.28.26,2.07-.12,2.2.22l.8,2.1,5.08,5.25Z"/>
      <path d="M111.49,169.47c2.5,1.99,1.25,6.03,1.05,6.03h-2.32c-.52.02-.24-1.9-.16-2.39l-1.89-2.04c-.07-2.37-.6-3.13-1.38-4.64l-1.84-3.54c-.64-1.23-.99-2.92-2.45-3.74s-2.49-3.52-1.28-4.11c2.64-1.26,6.22,2.74,7.32,6.15.42.69,1.41,2.13,1.61,2.94l1.33,5.33Z"/>
      <path d="M178,61.58c-4.24,6-9.34,7.08-9.09,4.99.42-3.51,4.09-3.03,3.93-6.77l3.22-3.16c.19-1.67.65-2.59,1.9-3.57l.2-5.79,3.02.05c-.03,1.67.02,3.78-.31,5.18l-1.36,5.87c-.52.69-1.24,1.95-1.49,3.2Z"/>
      <path d="M305.66,100.65l1.52,1.99c.35.46-.19,2.07-.67,2.99l-5.89-6.18-1.32-3.3c-.57-1.43-.89-2.25-2.18-3.28l-.3-9.51,3.64.1.2,5.7c2.7,1.17.99,5.08,3.45,9.02l1.55,2.48Z"/>
      <path d="M190.42,85.35c-.93.85-2.44,1.16-3.8,1.01l-1.53-.17c-.34-.04-.6-1.1-.3-1.26l1.49-.79c2.67-1.4,5.59-4.86,7.14-7.21,1.01-2.04,1.89-3.09,3.59-4.89.96-1.02,0-4.38,3.31-4.88v6.49c-1.29,1.33-1.46,1.97-2.18,3.57-1.48,3.27-5.01,5.64-7.72,8.11Z"/>
      <path d="M342.38,134.96l-3.56-.32-1.17-6.58c-.14-.8-1.27-2.23-1.62-2.94l-1.75-3.56c-.84-1.71-.78-2.7-2.78-3.68-.58-.28-1.32-1.22-1.5-1.79-.29-.92.52-2.51,1.61-2.23,3.57.92,6.58,5.46,7.39,9.85,2.33,1.16.37,3.58,2.99,4.38l.39,6.87Z"/>
      <path d="M181.81,69.53c-1.72,2.22-3.16,3.82-5.31,5.38l-.27-5.04,4.61-4.19c.52-1.82.96-2.63,1.59-3.87l1.81-3.55,1.82-3.5c.17-.32,1.21-1.36,1.45-1.11l1.36,1.45,1.25,1.33c.28.3-1.12,1.11-1.32,1.28l-1.72,3.97-1.72,3.29-3.54,4.56Z"/>
      <path d="M290.47,59.48l-1.24,1.3c-.5.52-2.33-1.11-3.48-4.38l-1.3-3.66c-.26-.75-1.58-2.07-1.47-2.89.23-1.68-.14-2.34-1.61-2.94l-.16-6.02,3.28-2.72,1.26,6.85.59,4.46c.83,1.04,1.35,1.89,1.93,3.17l1.9,4.25,1.41.9c.4.25-.75,1.34-1.09,1.69Z"/>
      <path d="M285.77,118.65c-2.26.6-6.26-2.34-6.33-5.25l-3.32-3.58c-.35-1.52-.88-2.58-1.83-3.57l-.49-2.26c-.1-.47-1.07-.82-1.59-1.16.29-2.03,4.44-3.16,5.13-1.84.17,2.84,2.29,7.18,3.74,8.47,1.33,1.17,1.86,2.34,2.47,3.92.49,1.26,3.87,2.55,2.22,5.27Z"/>
      <path d="M359.81,133.05l-3.66-.14-.48-6.17-1.21-5.42c-.87-1.07-1.56-2.61-1.65-4.37-.9-1.35-1.52-2.59-2.07-4.3l-.91-.52c-.3-.17-.63-1.09-.35-1.3s1.62-.43,2.08-.31c2.61.68,5.06,4.58,4.58,7.55,3.52,1.87.02,5.38,3.39,6.44l.27,8.54Z"/>
      <path d="M118.34,235.79c-3.15,1.02-5.36-1.8-5.71-4.51l-2.95-3.48c-1.41-1.66-2.8-2.6-4.7-3.03l-3.16-2.88c-.54-.49-1.02-1.69-1.13-2.4-.12-.75,2.53-1.11,3.03-.51,1.33,1.57,3.75,2.16,5.32,3.24s3.9,3.91,5.23,5.64c.75.97,1.12,2.89,2.39,3.7,1.45.92,1.93,2.05,1.68,4.25Z"/>
      <path d="M272.63,61.89c3.28,5.09,8.37,5.41,6.6,8.69-.65,1.2-3.13-.08-4.28-1.15l-5.89-5.47-2.28-6.47c-1.45-.98-1.35-2.55-1.31-4.61l2.84-2.93.52,4.88c1,1.13,1.42,2.05,2.09,3.48l1.71,3.59Z"/>
      <path d="M292.99,114.72l-2.1-2.15c-.35-.36-1.61-.31-2.72-.32l-.47-2.8c-1.71-1.42-2.56-3.13-3.23-5.24l-1.77-2.98-1.46-1.42-.02-6.43,3.63.09c-.36,3.6.7,6.78,2.97,9.3-.38,3.25,3.95,3.23,3.91,7.11.5.4,1.72,1.04,1.65,1.63l-.39,3.21Z"/>
      <path d="M335.51,133.52l-2.11,2.24c-2.03.58-3.41-2-3.63-3.76l-1.95-3.51c-.6-1.07-1.17-2.29-1.64-3.65-1.69-1.59-3.35-3.38-3.78-5.47-.66-.59-1.36-1.47-1.36-2.03,0-.79.82-1.59,1.28-1.25l3.17,2.6c1.23,1.01,3.49,3.13,4.18,4.48l1.78,3.5,1.95,3.56.58,2.22c.12.45,1.01.76,1.55,1.06Z"/>
      <path d="M377.24,132.81l-3.71.29-.33-9.53-1-6.76c-1.06-1.11-1.8-2.66-1.8-4.38l.2-1.57c.03-.24.76-.23,1.32-.24l3.28,4.46c.25,1.85.37,3.46,1.92,4.37l.13,13.35Z"/>
      <path d="M264.43,89.62l-5.73.09c-1.52-2.54-3.14-3.02-5.23-4-1.76-1.18-4.08-3.71-5.29-5.16-.31-1.67-.66-2.23-1.93-3.26l.23-4.78c2.64,1.26,4.36,3.67,4.82,6.61l4.09,3.92c2.2.58,4.05,1.49,5.5,2.96l3.53,3.62Z"/>
      <path d="M199.83,98.21c-1.61,2.53-3.84,3.24-6.6,1.6l4.81-4.02,4.16-3.18c1.8-1.37,1.07-3.27,6.12-7.96.55-.51,3.02-.09,3.05.65.17,3.87-3.76,3.38-4.04,7.42l-4.1,3.87c-.59.56-2.95.91-3.41,1.62Z"/>
      <path d="M196.6,91.45c-2.9,3.25-6.4,1.87-6.41,1.63l-.07-2.48c-.02-.64,1.55-.69,2.54-.63l6.37-6.28c.84-.83,1.21-1.3,1.33-2.9l5.09-5.08.4,5.06-2.21,2.79-7.05,7.89Z"/>
      <path d="M383.74,134.73c-.33.32-1.35-.92-1.65-1.26l-1.25-1.39c-.27-.31,1.04-.9,1.71-1.17l.11-11.46-1.85-1.04.18-6.59,3.46,2.92c-.22,1.67.4,2.71,1.76,3.56l.04,14.01-2.5,2.42Z"/>
      <path d="M326.5,135.2l-2.66,2.91c-2.22-2.03-3.7-4.86-4.13-8l-3.25-3.14c.11-4-4.69-3.63-3.98-8.18l3.06.05,4.09,4.28c.28,2.09,1.5,3.89,2.98,5.27.25,1.43.87,2.61,1.82,3.55l.46,2.28c.09.46,1.15.77,1.61.97Z"/>
      <path d="M144.76,143.31c-1.37-.89-2.28-1.62-3.52-2.65v-18s-1.77-.66-1.77-.66c-.32-.12.32-1.33.63-1.46,1.08-.45,4.11.97,4.5,2.29.59,6.77.48,12.99.16,20.48Z"/>
      <path d="M281.75,123.79l-5.19.39-3.72-4.2-3.73-4.68c-1.84-2.3-2.28-8.31-1.41-8.28l2.31.06c.52.01.36,1.88.44,2.39.77,1.02,1.72,2.6,2.01,3.84,1.48,1.56,3.01,3.19,3.81,4.93l5.47,5.53Z"/>
      <path d="M258.08,93.55l.31,3.53-4.8-.33-2.83-1.95-8.97-8.27c-.54-.49-.99-1.73-1.14-2.43-.16-.74,2.56-1.27,3.17-.77,2.28,1.89,4.47,3.97,6.37,6.2,1.27,1.5,1.85,1.79,3.72,2.6,1.19.52,1.19,1.24,4.17,1.41Z"/>
      <path d="M129.48,172.2c-5.93-1.58-2.4-6.09-5.45-7.15l-.41-4.19c-1.15-.95-1.61-1.99-1.91-3.51l-1.53-1.72c-.4-.45.12-2.49.28-2.56,3.71-.62,5.08,2.31,5.48,4.74,2.62,2.91,2.68,7.06,2.76,10.62l1.75,1.67c.43.41-.38,2.26-.97,2.1Z"/>
      <path d="M101.53,227.18c4.73,4.02,9.44,7.44,9.56,13.08.01.5-1.56.42-2.19.39-.52-.02-.68-1-.74-1.96l-10.11-9.94c-2.36.17-4.08-1.53-4.59-3.46l4.82-.05c1.03,1.04,1.99,1.37,3.24,1.92Z"/>
      <path d="M166.91,202.37l.43,3.92-3.34-.1-2.18-5.92-1.23-2.96-7.61-7.8,5.14-.52,5.09,5.75c.5,1.53,1.03,3.04,1.63,4.08l2.06,3.54Z"/>
      <path d="M317.88,139.62l-3.48-.35c1.06-4.75-4.32-3.18-3.54-7l-7.37-7.38.12-2.19c.03-.53,2.26-.61,2.67-.25,6.9,6.15,6.08,7.21,7.9,9.43l2.62,3.2c1.05,1.29,1.65,2.97,1.08,4.54Z"/>
      <path d="M93.65,134.49c-.43.49-3.36.33-2.74-.02-.64-2.1-1-2.83-1.63-4.06l-1.8-3.56c-.71-1.41-.98-2.3-2.29-3.41l.13-8.21c1.66,1.46,2.33,2.18,3.07,3.27l1.94,2.87.5,3.79c1.96,1.6,2.91,5.74,2.83,9.33Z"/>
      <path d="M273.95,126.15l.02,3.23-4.7-.03-5.08-6.08c-.84-4.24-5.25-3.61-3.94-8.96l3.49-.28c0,.99-.16,2.87.42,3.25l2.8,1.85c.83,3.65,3.1,7.21,7,7.02Z"/>
      <path d="M298.62,53.06l-2.27,2.59c-1.68-.48-3.12-2.98-3.51-4.96-2.74-1.76.1-4.74-3.04-5.56l-.09-8.37,3.56-.11.14,6.49c3.06,1.41.37,2.94,3.02,6.76l2.19,3.16Z"/>
      <path d="M251.05,110.6l-5.84-.22c-1.29-1.09-2.1-1.44-3.58-2.14l-3.66-1.74c-1.25-.59-3.1-2.62-4.42-3.65l.02-2.54c2.79-.06,4.34,1.27,6.3,2.8l3.55,1.6c1.44.65,2.19.86,3.34,2.01l4.17.43.12,3.45Z"/>
      <path d="M252.15,100.4c.43.28,2.37-.01,2.4.49l.11,2.24c.1,1.95-5.51-.97-5.32-.91l-5.6-1.88-6.71-6.06.16-2.39c.04-.55,2.24-.6,2.66-.21l5.53,5.15c1.59.37,2.32.68,3.2,1.25l3.56,2.31Z"/>
      <path d="M93.68,172.39c.06,1.17,2.83,1.45,1.47,8.75-2.53-.96-2.49-3.14-3.24-4.77l-1.68-3.61-2.87-3.38-2.09-2.87-.05-6.15,1.51.03c-.36,4.04,3.54,3.63,4.48,8.22.92.81,2.42,2.67,2.48,3.79Z"/>
      <path d="M153.69,47.98c-.25.45-.32,2.03-.84,2.1l-2.41.33c-.64.09-.9-1.57-.88-2.63.02-1.18.55-2.07,1.77-2.72l.36-6.04c3.1-1.5.87-5.89,1.98-5.89h3.2s.07,8.21.07,8.21c-3.39,1.49-.29,4.39-3.25,6.63Z"/>
      <path d="M134.12,171.88l-.22-7.79c-3.43-.94-.02-4.73-3.16-6.06l-.64-2.95-1.43-.63c-.3-.13.24-1.38.56-1.42.92-.13,3.12.26,3.51,1.01l1.86,3.59,1.38,3.15c.2.45.76,1.03,1.53,1.59l.25,9.65-3.65-.15Z"/>
      <path d="M102.68,84.32l-3.64.2v-5.93s-1.87-1.17-1.87-1.17l.15-10.01,3.17.04c.97.01-1.03,5,2.08,5.67l.11,11.2Z"/>
      <path d="M179.09,127.77l-3.03-2.87c2.78-2.1,4.39-3.98,5.5-6.83l2.92-2.92c.17-2.56,1.91-4.61,4.19-4.87.77-.09,1.71.8,1.66,1.7s-.67,1.78-1.64,2.5l-.65,2.78c-2.65,1.37-4.81,3.36-5.56,6.08l-3.38,4.41Z"/>
      <path d="M205.05,104.8c-.66.54-2.6,1.12-3.24,1.71-.48.45-2.21.68-2.93.59-.66-.08-.48-2.06-.32-2.81s1.79-.79,2.84-.98l3.3-2.76,7.56-7.3h2.29c.57,0,.63,2.37.23,2.76l-4.58,4.54-5.16,4.25Z"/>
      <path d="M392.48,134.48c-.3.29-1.05.29-2.65.39l.88-6.69c.37-2.78.39-6.28-.03-8.97-.28-.9-.78-2.31-.74-3.03s2.74-.42,2.77.3c.04.99.77,2.13,1.93,2.71l.05,13.1-2.21,2.18Z"/>
      <path d="M111.06,86.01l-3,.32.05-7.77-1.83-1.11-.03-10.14,3.48.04,1,6.61c.57,3.78.29,7.72.34,12.05Z"/>
      <path d="M146.26,171.97l-3.12.04-.16-5.9c-3.79-1.83.39-6.57-3.45-8.27l-.15-4.77,3.36.17c.22,1.72,1.1,3.16,1.72,4.13l1.25,7.57.54,7.02Z"/>
      <path d="M173.42,120.62c-.58.28-2.86-.24-2.72-.83.15-.68.64-1.86,1.18-2.37l4.48-4.27c-.88-2.73,2.43-3.26,2.98-4.77l1.72-4.73c.08-.23.11-1.43.12-1.67.02-.37,1.12-.2,1.69-.09l-.02,6.18c-.92.88-1.71,1.89-1.97,2.86l-1.14,4.26-6.32,5.44Z"/>
      <path d="M299.39,140.75c.62.77,1.33,2.14,1.3,3.76-.74.53-3.19.38-3.79-.38-.89-1.14-1.53-2.44-2.26-3.83-3.36-5.1-6.51-4.32-8.41-6.16-.58-.56-.12-3.22.63-3.1,1.13.18,2.56.75,3.43,1.26l3.77,2.21c2.75,1.61,4.37,3.54,5.33,6.24Z"/>
      <path d="M159.96,255.88l-4.1-1.64c-1.03-.41-1.99-1.51-3.77-1.28-1.27.16-2.19-.29-2.76-1.57l-4.42-.26.2-3.41,5.98.07c.8,2.55,2.17.61,6.72,2.94l3.71,1.9c.59.3,1.15,1.89,1.11,2.55s-1.89,1.01-2.66.7Z"/>
      <path d="M104.36,241.35c.29.28.55,2.53.13,2.58l-2.67.29c-3.54-3.91-7.11-6.98-11.77-9.62-.55-.31-1.32-1.46-1.4-2.05-.15-1.04.59-2.15,1.57-2.17.83-.02,2.41.66,2.58,1.58.29,1.62,2.67,1.79,3.61,2.56l5.45,4.47,2.5,2.37Z"/>
      <rect x="341.75" y="74.99" width="18.99" height="3.73" transform="translate(273.21 427.85) rotate(-89.81)"/>
      <path d="M174.59,203.56l-3.68-.34c.21-1.94-.2-3.22-1.87-4.13.13-2.14.5-4.6-2.24-5.51l-1.91-3.63-2.5-3.46c1.83-.4,3.39,0,4.44,1.13l3.72,4.01,1.58,3.64c.63,1.45,1.06,2.31,2.14,3.46l.32,4.82Z"/>
      <path d="M267.89,134.34l-5.2.44-5.81-6.09c-.79-2.15-1.75-3.75-4.15-5.3l3.01-3.06,3.96,4.62c.59.69,1.13,2.51,1.75,3.11l6.44,6.29Z"/>
      <path d="M245.21,115.42l3.08.83c-.07.48-1.25,1.77-2.12,2.14-.68.29-5.25-.61-8.37-2.2l-3-1.53c-1.31-.67-3.42-2.14-4.29-3.35-.37-.52.3-3.02.86-2.74l2.74,1.34,3.93,1.93,3.6,1.76,3.57,1.82Z"/>
      <path d="M150.85,144.79c-.34.34-1.38-.94-1.71-1.31l-1.2-1.36c-.27-.3,1.04-.88,1.7-1.1l.17-15.7,3.59,2.99-.11,14.07-2.44,2.41Z"/>
      <path d="M155.29,168.58l-.22,3.09c-.05.65-2.02.42-2.77.39-1.96-.08.82-4.37-2.43-5.18l-.28-7.85c-1.23-.75-1.95-1.85-1.8-4.02l3.69-.02c-.07,2.62.39,2.94,1.76,4.12l.24,5.75c1.31.83,1.94,2,1.82,3.73Z"/>
      <path d="M154.34,261.88c-1.5-.79-2.31-1.21-3.62-2.2l-4.03-.33c-1.39-2.94-5.55-.99-5.49-1.95l.17-2.5c3.72-.38,8.72.19,10.92,2.63,2.01-.03,4.48.3,5.87,1.92.41.47.66,1.97.72,2.74.04.61-1.65,1.21-2.2.92l-2.34-1.24Z"/>
      <path d="M307.94,137.15c.64.78,1.6,3.09.89,3.91-2.57,1.23-5.46-1.78-5.41-4.46l-8.82-8.52,4.94-.7,4.52,5.09,3.86,4.68Z"/>
      <path d="M158.37,51.57l.73-3.87c3.15-1.37-.26-4.78,3.17-6.3l.42-5.04c1.67,1.56,2.85,2.9,2.91,4.08.1,1.75-.86,3.21-1.84,4.25-.05,3.31-1.05,6.16-3.14,8.46-.02.86-.2,2.44-.82,2.48-1.01.06-2.88-.1-2.97-.83-.13-1.04.3-2.42,1.54-3.23Z"/>
      <path d="M167.05,246.13l.25,3.11c-3.48,1.27-5.27-.76-7.19-3.02-1.29-.2-3.03-.79-3.85-1.93l-6.59-.24.11-3.54,6.38.21c1.28,1.02,2.23,1.32,3.62,2.11l2.96,1.67c1.52.86,1.08,1.07,4.31,1.62Z"/>
      <path d="M352.83,160.96c.43.44.49,2.92-.07,2.93s-2.28,0-2.68-.39c-5.26-4.99-4.24-6.35-5.72-7.62l-4.63-3.98-1.16-.98c-.36-.3,1.27-.92,1.76-.93,2.37-.01,3.25.72,4.82,1.93,1.67,1.28,2.34,1.9,2.78,3.99l4.9,5.05Z"/>
      <path d="M172.63,239.14l-.03,3.22-5.04-.2c-1.48-2.44-3.14-3.42-5.66-3.8l-6.74-1.02.04-3.28,6.43.16,2.94,2.06c1,.71,2.38,1.36,3.51,1.66l4.55,1.2Z"/>
      <path d="M403.62,128.76c-3.1,1.44-.7,5.43-2.36,6.12l-2.94,1.21v-15.54s3.49.12,3.49.12c-.12,2.03.19,3.13,1.97,4.06l-.16,4.04Z"/>
      <path d="M167.36,150.01l-3.81.17.18-4.99,1.62-1.01.23-11.57,3.51,2.8-.13,10.64c-1.11.74-2.24.84-1.61,3.96Z"/>
      <path d="M181.28,199.63l-2.9.18c-.6.04.62-1.99-1.59-6.15l-1.92-3.61c-.43-.8-.91-2.64-1.65-3-.99-.49-2.44-1.06-2.4-1.73.06-.82.48-2.49.72-2.92,1.08,1.05,1.18,1.69,1.67,1.77l2.57.42c.88,4.1,3.57,2.71,4.42,8.18l1.07,6.88Z"/>
      <path d="M160.6,146.55l-3.65.04v-7.61c0-.47,1.12-1.37,1.66-1.64l.39-8.36,3.41,2.92v7s-1.83,1.19-1.83,1.19l.02,6.46Z"/>
      <path d="M154.06,268.65l-1.63,1.45c-.31.28-1.07-1.1-1.26-1.43-1.53-.17-3.12-.69-3.92-1.9l-3.58-.35c-1.39-3.01-5.91-.9-5.95-1.92l-.09-2.45c-.04-1,5.19-1.73,5.85.76l3.81.38c1.7,3.15,4.15.1,6.8,3.12l1,1.14c.21.24-.74.94-1.03,1.2Z"/>
      <path d="M176.35,235.99c-2.23-.01-3.09-.56-4.59-1.46l-3.55-1.73c-1.49-.73-2.35-1-3.56-2.12l-4.28-.22.44-3.44c2.72-.33,4.2-.17,5.19,1.67l4.11.13,3.25,3.24c1.52.23,2.91.78,3.65,1.69l1.06,1.29c.28.34-1.23.94-1.71.94Z"/>
      <path d="M160.84,173.74c-.05-1.69-.5-3.35-1.98-4.14l-.15-8.86c-1.64-.57-2.64-3.06-1.13-4.13,1.04-.74,4.14.92,4.43,2.32l.92,10.86c.13,1.49.49,3.74-2.09,3.94Z"/>
      <path d="M244.46,126l-4.79-.27c-1.65-2.68-2.7-.44-6.91-2.94-2.01-1.2-4.89-2.04-3.81-5.29,2.69.23,5.49,1.34,7.59,2.98,1.36.01,2.25.4,2.9,1.69l4.93.28.09,3.54Z"/>
      <path d="M191.91,124.89l-6.31,6.5-2.41-.16c-.56-.04-.6-2.23-.2-2.63l7.09-7.2c.17-1.35.65-2.87,1.55-3.25s3.16-.38,3.79-.27c-1.31,1.63-2.95,4.82-3.51,7.02Z"/>
      <path d="M303.69,49.94c-.43.44-2.03-.38-2.49-.87-1.66-1.79.73-4.86-2.3-5.74l-.28-7.87,3.42-2.72.7,8.02,1.1,6.22c.35.17,1.86.89,1.57,1.19l-1.72,1.78Z"/>
      <path d="M196.94,132.17c-.43,1.07-5.16,5.16-7.09,5.76-1.23.38-2.27-1.69-1.5-2.43l5.28-5.03.62-2.29,3.85-4.09,2.29,2.59c-1.58,1.5-2.6,3.39-3.45,5.49Z"/>
      <path d="M336.92,153.63c.82,4.85,7.99,8.49,4.92,9.9-3.24,1.49-4.19-1.87-4.44-3.99l-7.24-7.13c-.8-.79-1.65-1.21-1.88-2.04l4.59-.13,4.05,3.39Z"/>
      <path d="M319.69,159.08l1.41,4.39c-.72.79-2.58-.08-3.51-.99l-10.56-10.4c1.48-.26,4.7-.52,5.68.41l6.98,6.59Z"/>
      <path d="M170.9,173.9l-3.65-.22-.12-11.34c-1.09-.6-1.85-1.21-1.86-1.81-.02-.89.35-2.14,1.01-2.23.76-.1,2.85.35,2.68,1.07-.29,1.19.51,2.61,1.77,2.96l.16,11.55Z"/>
      <path d="M180.71,230.29c-1.39,2.44-3.47-3.34-7.6-3.69-1.6-2.87-6.23.66-7.71-4.92l6.42.1c1.24,1.28,4.96,3.03,6.9,3.56,1.57.43,3.2,2.8,1.98,4.95Z"/>
      <path d="M208.39,112.31c-1.96-.07-5.67,3.24-5.88,1.8l-.4-2.79c-.09-.65,1.67-.8,2.65-.73l5.45-5.09c2.27-.35,3.71-1.48,5.14-4.13,1.72,1.47.64,4.03-1.06,5.58l-5.89,5.36Z"/>
      <path d="M293.37,147.09c-.07.58-.1,1.2-.35,1.27-.37.1-2.25.32-2.52.04l-5.09-5.33-5.1-5.33c-.26-.27-1.99-.14-2.36-.12s-.25-1.11-.15-1.64h4.41s3.05,2.2,3.05,2.2l4.18,3.76c.3,2.39,1.92,3.96,3.93,5.16Z"/>
      <path d="M214.5,127.66l-6.95-.18c.61-2.13,2.77-3.22,4.78-3.68l3.16-2.14,5.5-4.42c.64,1.78.87,3.75.1,4.76-1.02,1.32-2.37,2.15-4.46,2.26l-2.12,3.4Z"/>
      <path d="M331.82,160.97c.31.3.57,2.51.14,2.57l-2.56.37-3.19-3.03-1.94-3.37-4.68-5.17-1.15-.55c-.32-.16-.37-.99-.37-1.34s1.82-.46,2.09-.24l3.77,3.05,7.89,7.71Z"/>
      <path d="M99.14,246.82l-2.78,2.82-6.42-7.14c-2.8-.09-5.49-1.98-4.67-5.01l4.56,1.6,2.9,1.86,6.41,5.87Z"/>
      <path d="M174.05,153.03l-3.19-.11.13-2.24c.02-.37.82-.58,1.59-.88l.16-9.89,3.48-2.67.05,12.31c-1.19.76-1.66,1.33-2.21,3.48Z"/>
      <path d="M179.95,175.38l-3.72.21.04-9.54c-1.49-.51-2.63-2.51-1.43-3.93.85-1.01,4.23.47,4.78,2.11l.33,11.15Z"/>
      <path d="M373.37,165.59l-2.44-.17c-.53-.04-.3-1.91-.41-2.45l-5.25-5.49c-.23-2.69-1.85-3.52-4.21-5.11,1.73-.92,3.85-.48,5.12.79l4.19,4.22.51,2.5c2.16,1.17,3.21,3.72,2.49,5.72Z"/>
      <path d="M361.6,82.58c-.88.85-2.52,1.73-3.64,2.04l-.14-13.12,3.55-2.72.24,13.8Z"/>
      <path d="M278.59,148.45c-.68-1.14-2.63-1.65-3.75-2.29-1.22-.7-3.31-2.75-4.3-3.73-.39-.38-.25-2.09-.19-2.63s2.35-.55,2.74-.18l10.4,9.78c-1.75,1.69-3.81.89-4.91-.96Z"/>
      <path d="M201.25,150.17l-2.95-2.53,8.51-8.25h2.31c.57,0,.59,2.37.13,2.83l-8.01,7.96Z"/>
      <path d="M198.3,140.84c-1.04,1.06-1.73,3.36-4.21,1.96-1.27-.72.25-3.04,1.21-3.98l8.32-8.15c.37,1.5.49,3.47.24,4.52l-5.56,5.66Z"/>
      <path d="M363.32,162.57l-.5,3.42-6.69-6.77c-.4-3.2-2.26-5.1-5.3-6.72,2.52-1.67,3.84-.27,5.23,1.2l5.48,5.78c.02,1.33.35,2.04,1.77,3.09Z"/>
      <path d="M182.99,151.75c-1.29,1.72-1.77,2.33-2.1,4.55-.19.48-2.82.43-2.9-.4-.12-1.34.31-2.62,1.59-3.23l.66-4.79,1.01-4.94,3.48.15-.08,4.73c-1.55.61-2.07,1.94-1.66,3.92Z"/>
      <path d="M186.86,222.64c-.59.58-3.2,1-4.14.94-1.07-.07-1.86-1.4-2.84-2.64l-4.65-.75c-1.04-.79-1.5-1.39-3.5-1.64-.27.11-.53-.18-1.01-1.55h8.43s2.82,2.07,2.82,2.07l4.9,3.57Z"/>
      <path d="M275.06,153.28l-2.21,1.5c-1.45-1.74-2.46-2.25-4.33-2.98l-4.41-3.77-1.78.24c-.32.04-.46-1.01-.21-1.22l1.16-.93.96-1.22c.26-.33,1.28.57,1.58.88l5.18,3.84,3.74,1.92,1.09.72c.2.13-.49.84-.78,1.03Z"/>
      <path d="M142.47,282.06c-1.73.08-2.8-.47-3.64-1.81l-6.58-.1v-3.54s6.57.14,6.57.14c1.4,3.05,5.97,1.01,6.01,1.99l.11,2.46c.03.62-1.33.81-2.47.86Z"/>
      <path d="M308.81,160.84c.35.32.74,2.68.31,2.72l-2.84.23-6.06-6.7-1.69-1.92c-.41-.46.76-2.51,1.16-2.06l3.06,2.23,6.06,5.5Z"/>
      <path d="M210.18,118.83c-.99,1.83-3.02,2.3-4.59,1.5l.35-2.35c.08-.54,1.68-.31,2.48-.19l3.6-3.61c2.2.13,3.39-.82,3.96-3.46l4.15.03-4.02,4.55c-1.49,1.68-2.53,3.73-5.92,3.52Z"/>
      <path d="M240.82,133.07l-6.59-.18c-1.59-3.03-5.35-1.09-5.38-1.96l-.09-2.47c-.02-.64,1.23-.79,2.53-.88,1.17-.08,2.12.46,2.66,1.75l6.82.19.06,3.55Z"/>
      <rect x="182.9" y="163.7" width="3.66" height="11.94"/>
      <path d="M147.83,37.77c-3.4,1.56.18,6.46-4.6,7.96l-.1-8.43c1.01-.7,1.98-1.91,1.92-2.76l-.17-2.35c-.04-.54,1.63-.3,2.93-.15l.02,5.73Z"/>
      <path d="M188.43,193.65l-3.3,3.01-.73-5.26c-.95-.94-1.27-1.65-1.84-2.8l-2.89-5.76c3.71-1.05,4.29,2,5.67,3.94,2.45,3.44-.12,5.12,3.09,6.85Z"/>
      <polygon points="310.77 46.15 307.19 43.1 307.16 32.93 310.85 33.05 310.77 46.15"/>
      <path d="M382.53,165.54l-3.34-.12c.44-4.42-3.85-4.06-4.11-8.05l-1.55-1.72c-.4-.44.21-2.32.68-2.91l4.53,4.66c.15,4.02,4.96,3.76,3.78,8.14Z"/>
      <path d="M147.21,272.38c.42.27.84,1.6.83,2.13s-1.83.74-2.19.38l-1.48-1.48-3.78-.65-5.85-1.01c-.33-.06-.89-.95-.63-1.16l1.24-1,2.03-1.4c.58-.4,2.08.84,2.44,1.71l4.36.5,3.03,1.98Z"/>
      <path d="M189.92,157.47c-.07.9-1.94,2.38-3.2,3.15l-.28-6.94,1.81-1.2.34-5.95c1.32.15,3.13,2.1,3.55,3.36.25.77-1.06,2.15-1.81,2.7l-.41,4.89Z"/>
      <path d="M260.17,139.62c-1.97-.03-3.16-.58-4.55-1.36l-3.51-1.94-2.13-2.16c-.52-.53-.08-2.88.28-3.29,3.74.25,4.2,5.38,9.75,5.24l.15,3.5Z"/>
      <path d="M189.71,219.25l-1.98-1.99c-.34-.34-1.75-.53-2.21-.7l-3.57-1.89-3.83-1.88c-.07.09.84-1.16,1.18-1.63l.67-.92c.12-.17.63-.52.74-.35l.83,1.29,3.98,1.63,3.6,1.89c1.43.75,1.37,2.73.59,4.53Z"/>
      <path d="M319.95,39.48l-3.36,2.87-.45-5.23c-1.77-.53-2.23-2.78-1.45-4.86.86-.93,4.96.32,5.02,1.79l.23,5.44Z"/>
      <path d="M195.66,210.7c.43.42-1.61,1.49-2.15,1.13l-2.33-1.57c-1.54-.52-2.49-.91-3.57-2.01l-4.67-.49c.06-.39.76-1.55,1.17-1.92l1.52-1.36c.32-.29.95,1.08,1.15,1.67l4.44.23,4.43,4.32Z"/>
      <path d="M213.78,134.97l-2.51-.5c-.46-.09.57-1.57.97-1.82l3.05-1.88,3.68-1.76,2.28-1.37c.5,1.45.38,3.53-.72,4.06l-3.68,1.79c-.72.35-2.3,1.64-3.07,1.48Z"/>
      <path d="M237.3,140.56c.03.3-1.37.91-1.49.62l-.7-1.62-5.79-.03-2.79-3.36,8.17-.23,2.32,2.15.28,2.47Z"/>
      <path d="M223.33,141.21l-4.8.12-1.23,1.54c-.37.46-2.43.21-2.54-.35-.23-1.17.8-4.46,1.99-4.57l6.54-.35.04,3.61Z"/>
      <path d="M198.27,202.88c1.01.5,1.75.84,2.17,1.28s-.35,2.63-.89,2.34l-2.71-1.47c-.95-.52-3.06-1.19-4.29-1.51-1.65-.34-2.34-.44-2.55-1.53-.23-1.22.41-2.6,1.59-2.33.74.17,1.95.89,2.71,1.26l3.97,1.96Z"/>
      <path d="M298.81,162.46c0,.37-.07,1.35-.34,1.39-.4.06-2.14.18-2.43-.1l-5.52-5.3c-.27-.26-1.92-.16-2.29-.16s-.26-1.04-.19-1.64l4.87.09c.72,1.77,2.2,1.91,3.83,1.77l.27,2.47c.06.6,1.08,1.03,1.8,1.48Z"/>
      <path d="M390.74,167.42l-2.54-2.6c.04-4.28-6.08-4.4-3.19-8.71l4.52,4.65c.82.85,1.51,3.04,1.86,4.41l1.03.53c.3.15.68,1.21.35,1.28l-2.03.43Z"/>
      <path d="M197.25,161.81l-3.62.27.29-6.56,2.57-2.82c.26.27,1.3,1.63,1.7,2.26s-.38,1.91-.63,2.76l-.31,4.09Z"/>
      <path d="M195.38,173.03c-.03.86-3.05,1.12-1.31,3.56l-2.01.85-.15-10.3,3.69.29-.22,5.6Z"/>
      <path d="M191.96,192.11c.25-1.79-.32-2.96-1.56-3.31l-.51-4.09-1.56-.65c-.31-.13.4-1.43.72-1.49,1.29-.24,3.37.82,4.53,2.43l.29,7.23c.03.63-2.01.55-1.92-.11Z"/>
      <path d="M255.31,144.47l-4.69.27c-1.02-1.49-1.85-2-4.13-1.76l-.28-3.53,4.08.12,5.02,4.91Z"/>
      <path d="M256.28,152.47c4.99-1.29,11.44.56,11.1,5.66-.02.34-1.2.46-1.37.17l-.78-1.3c-4.44-.15-3.8-3.93-8.94-4.53Z"/>
      <path d="M90.6,77.44l-.17-2.44c-.03-.49-1.03-.69-2.1-1.12l3.59-3.44c2.64,3.81,1.65,9.31,1.36,9.31l-2.37.04c-.53,0-.26-1.83-.3-2.34Z"/>
      <path d="M260.35,161.03c-.08.45-1.76,1.19-2.37,1.08s-1.21-.77-1.98-1.75l-4.48-.24-1.88-3.25,4.41-.21c.98,1.43,2.03,1.74,3.67,1.93l2.64,2.44Z"/>
      <path d="M236.95,148.37l-10.24-.04c.58-2.77,4.13-4.76,6.38-2.99,1.18.93,1.55,1.12,3.87,1.65v1.37Z"/>
      <polygon points="139.49 38.33 135.83 38.55 135.83 31.88 139.44 31.95 139.49 38.33"/>
      <path d="M200.37,182.56l-.13,8.79c-3.33-1.66-2.8-4.38-2.85-6.92l-.03-1.56c0-.43,1.04-.35,3.01-.32Z"/>
      <path d="M205.22,155.38l-1.47-1.58,4.62-3.31c.58-.42,2.78-.75,2.95-.11s-.18,2.27-.73,2.83c-1.22,1.23-2.5,1.72-5.37,2.18Z"/>
      <path d="M231.14,164.22l-1.01,1.1c-.22.24-1.33-.1-1.3-.19.04-.9.14-2.3-.28-2.58l-1.87-1.27,1.52-1.63,1.06-1.15c.42-.46,2.78,1.61,3.28,3.18.21.66-.92,2.01-1.4,2.54Z"/>
      <path d="M90.5,249.74l-.14,5.55-5.36-4.91.26-2.41c.04-.37,1.05-.02,1.3.26.68.84,2.19,1.34,3.94,1.51Z"/>
      <path d="M202,170.32c.75,3.64.2,5.72-3.35,7.46l-.11-7.56,3.46.11Z"/>
      <path d="M231.87,156.59l-4.83.1-.17-3.65,7.06.14c-.37.97-1.39,2.8-2.05,3.41Z"/>
      <path d="M286.44,162.82c-.36.57-2.1,1.36-2.43,1.02l-1.76-1.83c-.47-.12-2.66.2-2.68-.44l-.12-2.83c-.03-.64,2.55-.56,2.99-.09l4.01,4.18Z"/>
      <path d="M365.01,79.82l1.82-1.29.35-6.38,3.35,3.1c.73.68-.53,2.96-1.32,3.58-1.06.83-2.21.99-4.21.99Z"/>
      <path d="M250.03,150.2l-7.32-.12-.07-3.53c2.15-.37,3.45.51,4.73,1.86.87,0,2.98-.78,2.67,1.8Z"/>
      <path d="M203.35,199.64c-3.08-3.17-4.61,0-4.94-3.76-.06-.71.9-1.67,1.62-1.55.61.1,1.97.58,2.38,1.04l1.67,1.88c.48.53-.54,3.22-.73,2.4Z"/>
      <path d="M237.36,163.55c-.62-.27.56-1.94,1.35-1.91l.51-3.17,3.54-.11c-.08,1.83-.28,2.96-1.13,4.03-.94,1.19-2.83,1.8-4.27,1.16Z"/>
      <path d="M203.86,167.3c-1.48-.11-3.53-2.36-3.59-3.3-.08-1.33,2.42-4.4,3.75-3.79l-.17,7.09Z"/>
      <polygon points="209.48 176.98 205.85 177.6 205.83 171.95 209.43 172.02 209.48 176.98"/>
      <path d="M405.72,137.75l-.08-4.07c1.54-1.15,1.81-2.13,2.4-4.3,1.28,3.92.64,8.35-2.32,8.37Z"/>
      <path d="M223.66,146.59c-.82,2.49-3.08,4.14-5.76,3.54l-.03-3.59,5.79.06Z"/>
      <path d="M89,181.53l-3.64,3.53-.15-8.03,1.83,1.05c-.31,2.22-.07,2.48,1.95,3.45Z"/>
      <path d="M137.61,287.32l-5.35-.08-.12-3.54c2.07-.16,3.29.21,4.53,1.46.28.18,1,.45.99.71l-.04,1.45Z"/>
      <rect x="322.89" y="34.77" width="3.75" height="3.65" transform="translate(-.14 1.31) rotate(-.23)"/>
      <polygon points="276.48 163.65 269.73 163.56 273.17 159.91 276.48 163.65"/>
      <rect x="130.41" y="290.12" width="3.66" height="3.68" transform="translate(-1.75 .8) rotate(-.34)"/>
      <rect x="213.07" y="165.51" width="3.1" height="3.6"/>
      <rect x="237.22" y="154.75" width="5.46" height="1.99" transform="translate(-.75 1.16) rotate(-.28)"/>
      <path d="M213.72,160.68l-.83.86c-.24.25-1.36.75-1.4.41l-.22-1.69-.06-1.54c-.01-.4,1.36-.39,1.78-.4l1.56-.05c.26,0,.62.9.44,1.09l-1.28,1.33Z"/>
    </g>
    <g>
      <path d="M89.92,116.31c-.89-.68-2.33-1.27-2.96-1l-3.14,1.37,2.61,3.12c1.42,1.7,2.54,3.17,2.99,5.8.32.18.62.4.91.63-.28-3.29-.39-6.61-.41-9.93Z"/>
      <path d="M85.26,139.17l2.14.92c.51.22,1.27-1.47,1.53-2.09l-1.53-4.63c.31-2.44-.45-4.75-2.62-5.87l-1.65-4.19-1.82-2.99-5.67-3.03-1.66,3.2,4.22,2.27c.12,1.32,1.38,2.53,2.3,3.21l2.1,5.86,2.65,7.34Z"/>
      <path d="M78.07,195.61l1.64-.47c.39-.11.3-1.46.05-1.8l-2.46-3.34c-3.27-4.43-5.93-2.72-5.92-6.09l-8.57-4.32-4.16,1.88,7.9,4.08c-.1,4.02,5.55,2.27,5.55,6.35l3.99,2.19-.07,1.74c-.02.42,1.53-.08,2.04-.23Z"/>
      <path d="M88.24,184.18c.56.78,2.6,1.64,3.68,1.89.41-3.55-1.16-6.08-3.22-7.65-.29-3.26-4.47-1.9-4.49-5.52l-3.61-1.98c-.31-1.12-.91-2.46-1.68-2.84-1.11-.54-2.75-.44-3.87-.05l-1.19.3c-.33.09-.32,1.32-.08,1.4,1.22.27,2.62,1.75,2.4,3.03l4.74,2.61c.24,2.96,2.09,1.6,4.99,5.58l2.35,3.23Z"/>
      <path d="M67.79,203.17l-7-3.36-.27-2.21-8.75-3.89c-2.36.27-4.19,1.67-4.28,3.65l18.75,9.04,1.55-3.22Z"/>
      <path d="M67.99,142.37l3.35,3.29c.64-.67,1.99-2.98,1.76-4.04-.34-1.55-1.27-2.99-2.8-3.92l-1.65-4.7c-2.34-.48-3.61-1.59-3.79-3.58l-7.15-3.52c-.89,3.2,1.61,4.79,3.72,6.11l2.3,3.26,2.72,3.03,1.56,4.08Z"/>
      <path d="M67.47,197.89c.65,1.24,1.68,4.3,3.72,2.81.94-.69.8-2.97.31-3.91-1.79-3.46-6.17-2.25-5.54-5.6l-10.81-5.29-2.53,5.17c2.52-.53,3.42-.84,4.35-.5,1.53.56,2.03,1.75,2.26,3.12l8.25,4.2Z"/>
      <path d="M86.48,190.69l-1.5-3.32-2.64-3.05c-1.05-1.22-1.67-1.9-2.26-3.43l-4.6-2.44-.35-2.1-7.57-3.47-1.42,2.8c-.49.98,4.63.98,4.49,4.35l6.33,3.28c.22,1.95,1.49,2.41,3.02,3.57,2.16,1.65,3.66,2.98,6.5,3.82Z"/>
      <path d="M94.59,178.06l1.16,2.21c.27.51,1.99.74,3.03.71l-3.09-7.89-2.45-2.6c-1.06-1.13-1.67-1.77-2.06-3.36l-8.59-4.43-1.51,3.25,5.13,2.67c-.1,2.9,4.22,3.1,6.76,6.99l1.6,2.45Z"/>
      <path d="M63.48,146.66l1.74-.53c.7-.21,0-2.54-2.49-4.99l-2.79-2.74c-.57-.56-1.21-2.3-2.01-2.56-1.64-.54-2.09-1.14-1.99-2.7l-5.45-2.78-3.93,1.7,5.73,4.1,3.83,2.47c.59,1.19,1.14,2.02,2.07,3.09l3.06,3.53.21,1.64c.06.46,1.56-.08,2.03-.22Z"/>
      <path d="M73.5,131.98c3.23,5.12,1.3,9.75,5.08,9.62,1.38-.05,1.29-2.79.81-4.28l-2.44-7.59-4.93-4.84c-.27-1.71-1.74-2.31-3.66-3.17l-3.93,1.22,4.25,2.59c.6,1.37,1.26,2.15,2.27,3.37l2.54,3.08Z"/>
      <path d="M54.02,151.03l3.37-.86c.3-1.69-1.37-4.06-3.02-5.27-.42-3.18-4.39-1.99-3.76-5.11l-7.64-3.74-1.66,3.09,5.89,2.97c-.04,3.32,2.53,1.61,4.88,5.62l1.94,3.31Z"/>
      <polygon points="44.91 202.08 43.29 205.37 60.73 213.62 62.35 210.33 44.91 202.08"/>
      <path d="M48.95,154.14c.6-.18.54-1.95.29-2.57-.92-2.25-4.78-1.48-4.26-4.54l-7.1-3.69-3.99,1.82,7.05,4.12,5.23,3.69c0,.38,0,2.03.4,1.9l2.39-.74Z"/>
      <path d="M53.55,219.48c1.16-.4,2.69-1.46,3.47-2.32l-11.97-5.86-4.04,1.94,12.55,6.24Z"/>
      <polygon points="42.37 158.73 41.15 154.23 31.83 149.76 30.32 153.06 42.37 158.73"/>
      <path d="M32.24,163.9l4.1-1.71-4.6-2.68c.29-1.79-1.57-3.18-3.83-3.4-1.23.35-1.88,4.51-.56,5.21l4.88,2.58Z"/>
      <path d="M49.52,221.28l-1.98,1.04-6-2.48,1.38,4.31c.3.94,2.94.83,3.86.41,1.23-.57,1.88-1.51,2.75-3.28Z"/>
      <polygon points="24.99 167.73 28.33 169.33 29.98 166.04 26.64 164.43 24.99 167.73"/>
    </g>
  </g>
  </g>
</svg>
